<?xml version="1.0" encoding="UTF-8"?>
<svg xmlns="http://www.w3.org/2000/svg" id="Solid" viewBox="0 0 512 512" width="512" height="512">
  <path d="M478.916,440H257.084a23.025,23.025,0,0,0,21.9,16H457.016A23.025,23.025,0,0,0,478.916,440Z" class="plate" fill="#ffd166" />
  <circle cx="232" cy="256" r="8" class="clock-inner" fill="#ffd166" />
  <path d="M288,368a56.064,56.064,0,0,0,56,56h32a56.064,56.064,0,0,0,56-56V312H288Z" class="cup" fill="#ffd166" />
  <path d="M288.8,414.158A71.666,71.666,0,0,1,272,368V304a8,8,0,0,1,8-8H395.2a168.141,168.141,0,0,0,4.585-32H392a8,8,0,0,1,0-16h7.805a167.354,167.354,0,0,0-43.544-104.948l-5.467,5.468a8,8,0,0,1-11.314-11.314l5.468-5.467A167.354,167.354,0,0,0,240,88.2V96a8,8,0,0,1-16,0V88.2a167.354,167.354,0,0,0-104.948,43.544l5.468,5.467a8,8,0,0,1-11.314,11.314l-5.467-5.468A167.354,167.354,0,0,0,64.195,248H72a8,8,0,0,1,0,16H64.195a167.354,167.354,0,0,0,43.544,104.948l5.467-5.468a8,8,0,0,1,11.314,11.314l-5.468,5.467A167.354,167.354,0,0,0,224,423.805V416a8,8,0,0,1,16,0v7.806A166.322,166.322,0,0,0,288.8,414.158Zm52.049-161.736C342.676,248.759,344,246.111,344,240a8,8,0,0,1,16,0,38.863,38.863,0,0,1-4.845,19.578C353.324,263.241,352,265.889,352,272a8,8,0,0,1-16,0A38.863,38.863,0,0,1,340.845,252.422Zm-40,0C302.676,248.759,304,246.111,304,240a8,8,0,0,1,16,0,38.863,38.863,0,0,1-4.845,19.578C313.324,263.241,312,265.889,312,272a8,8,0,0,1-16,0A38.863,38.863,0,0,1,300.845,252.422ZM232,280a23.858,23.858,0,0,1-10.341-2.345L179.313,320h3.314a8,8,0,0,1,0,16H160a8,8,0,0,1-8-8V305.373a8,8,0,0,1,16,0v3.314l42.345-42.346A23.99,23.99,0,0,1,224,233.376V147.313l-2.343,2.344a8,8,0,0,1-11.314-11.314l16-16a8,8,0,0,1,11.314,0l16,16a8,8,0,0,1-11.314,11.314L240,147.313v86.063A24,24,0,0,1,232,280Z" class="clock-face" fill="#ffd166" />
  <path d="M232,456c5.041,0,10.089-.2,15.115-.574a38.764,38.764,0,0,1-6.513-15.633c-2.857.13-5.723.207-8.6.207C130.542,440,48,357.458,48,256S130.542,72,232,72s184,82.542,184,184a184.819,184.819,0,0,1-4.39,40h16.374A201.4,201.4,0,0,0,432,256c0-110.28-89.72-200-200-200S32,145.72,32,256,121.72,456,232,456Z" class="clock-outer" fill="#ffd166"/>
  <path d="M496,344v16a32.03,32.03,0,0,1-32,32H443.88a70.823,70.823,0,0,0,3.67-16H464a16.021,16.021,0,0,0,16-16V344a16.021,16.021,0,0,0-16-16H448V312h16A32.03,32.03,0,0,1,496,344Z" class="cup-handle" fill="#ffd166" />
</svg>
